# xmcd
#
# Track frame offsets: 
#        150
#        132930
#        168145
#
# Disc length: 4424 seconds
#
# Revision: 2
# Processed by: cddbd v1.4PL0 Copyright (c) Steve Scherf et al.
# Submitted via: ExactAudioCopy v0.90b4
#
DISCID=1c114603
DTITLE=Gov't Mule - Live... With a Little Help From Our Friends [CD
DTITLE=4)
DYEAR=1999
DGENRE=Heavy Blues
TTITLE0=Afro-Blue
TTITLE1=Pygmy-Twylyte
TTITLE2=Data
EXTD=
EXTT0=
EXTT1=
EXTT2=
PLAYORDER=
